<!-- Generated by IcoMoon.io -->
<svg version="1.1" xmlns="http://www.w3.org/2000/svg" width="1280" height="1024" viewBox="0 0 1280 1024">
<title></title>
<g id="icomoon-ignore">
</g>
<path d="M596 576h62q28 0 42-26 10-26-6-48l-158-182h58q30-2 42-28 10-26-8-48l-220-234q-24-20-48 0l-220 234q-18 22-8 48 12 26 42 28h58l-158 182q-16 22-6 48 14 24 42 26h62l-160 182q-18 22-8 48 14 24 42 26h274v128q0 28 18 46t46 18 46-18 18-46v-128h274q28-2 42-26 10-26-8-48l-160-182zM1268 758l-160-182h62q28 0 42-26 10-26-6-48l-158-182h58q30-2 42-28 10-26-8-48l-220-234q-24-20-48 0l-190 202q34 50 14 106-14 28-38 46l84 96q42 54 16 118-14 26-36 42l82 94q2 2 4 6 24 18 24 48v192q0 28 18 46t46 18 46-18 18-46v-128h274q28-2 42-26 10-26-8-48v0z"></path>
</svg>
