<?xml version="1.0" encoding="utf-8"?>
<svg width="65" height="65" viewBox="0 0 61 65" fill="none" xmlns="http://www.w3.org/2000/svg">
  <path d="M60.7539 14.3904C59.8143 7.40642 53.7273 1.90257 46.5117 0.836066C45.2943 0.655854 40.6819 0 29.9973 0H29.9175C19.2299 0 16.937 0.655854 15.7196 0.836066C8.70488 1.87302 2.29885 6.81852 0.744617 13.8852C-0.00294988 17.3654 -0.0827298 21.2237 0.0561464 24.7629C0.254119 29.8384 0.292531 34.905 0.753482 39.9598C1.07215 43.3175 1.62806 46.6484 2.41704 49.9276C3.89445 55.9839 9.87499 61.0239 15.7344 63.0801C22.0077 65.2244 28.7542 65.5804 35.2184 64.1082C35.9295 63.9428 36.6318 63.7508 37.3252 63.5321C38.8971 63.0329 40.738 62.4745 42.0913 61.4937C42.1099 61.4799 42.1251 61.4621 42.1358 61.4417C42.1466 61.4212 42.1526 61.3986 42.1534 61.3755V56.4773C42.153 56.4557 42.1479 56.4345 42.1383 56.4151C42.1287 56.3958 42.1149 56.3788 42.0979 56.3655C42.0809 56.3522 42.0611 56.3429 42.04 56.3382C42.019 56.3335 41.9971 56.3336 41.9761 56.3384C37.8345 57.3276 33.5905 57.8234 29.3324 57.8156C22.0045 57.8156 20.0336 54.3384 19.4693 52.8908C19.0156 51.6397 18.7275 50.3346 18.6124 49.0088C18.6112 48.9866 18.6153 48.9643 18.6243 48.9439C18.6333 48.9236 18.647 48.9056 18.6643 48.8915C18.6816 48.8774 18.7019 48.8675 18.7237 48.8628C18.7455 48.858 18.7681 48.8585 18.7897 48.8641C22.8622 49.8465 27.037 50.3423 31.2265 50.3412C32.234 50.3412 33.2387 50.3412 34.2463 50.3146C38.4598 50.1964 42.9009 49.9808 47.0465 49.1713C47.1499 49.1506 47.2534 49.1329 47.342 49.1063C53.881 47.8507 60.1038 43.9097 60.7362 33.9301C60.7598 33.5372 60.8189 29.8148 60.8189 29.4071C60.8218 28.0215 61.2651 19.5781 60.7539 14.3904Z" fill="url(#paint0_linear_89_8)"/>
  <defs>
    <linearGradient id="paint0_linear_89_8" x1="30.5" y1="0" x2="30.5" y2="65" gradientUnits="userSpaceOnUse">
      <stop stop-color="#6364FF"/>
      <stop offset="1" stop-color="#563ACC"/>
    </linearGradient>
  </defs>
  <path d="M 29.273 27.293 L 31.135 27.293 C 31.695 27.293 32.116 27.031 32.395 26.511 C 32.596 25.991 32.535 25.51 32.215 25.07 L 27.471 19.605 L 29.213 19.605 C 29.814 19.565 30.234 19.285 30.474 18.765 C 30.674 18.245 30.594 17.764 30.234 17.324 L 23.628 10.297 C 23.147 9.897 22.667 9.897 22.186 10.297 L 15.581 17.324 C 15.221 17.764 15.14 18.245 15.34 18.765 C 15.581 19.285 16.001 19.565 16.601 19.605 L 18.344 19.605 L 13.6 25.07 C 13.279 25.51 13.219 25.991 13.42 26.511 C 13.699 26.991 14.12 27.253 14.68 27.293 L 16.542 27.293 L 11.737 32.757 C 11.377 33.198 11.297 33.678 11.497 34.198 C 11.777 34.679 12.197 34.939 12.759 34.979 L 20.986 34.979 L 20.986 38.822 C 20.986 39.383 21.166 39.844 21.526 40.204 C 21.886 40.564 22.346 40.744 22.907 40.744 C 23.468 40.744 23.929 40.564 24.289 40.204 C 24.649 39.844 24.829 39.383 24.829 38.822 L 24.829 34.979 L 33.056 34.979 C 33.617 34.939 34.036 34.679 34.318 34.198 C 34.518 33.678 34.438 33.198 34.077 32.757 L 29.273 27.293 Z M 49.451 32.757 L 44.646 27.293 L 46.509 27.293 C 47.069 27.293 47.489 27.031 47.769 26.511 C 47.969 25.991 47.909 25.51 47.589 25.07 L 42.845 19.605 L 44.586 19.605 C 45.187 19.565 45.608 19.285 45.848 18.765 C 46.048 18.245 45.968 17.764 45.608 17.324 L 39.001 10.297 C 38.521 9.897 38.041 9.897 37.56 10.297 L 31.855 16.363 C 32.535 17.363 32.676 18.425 32.276 19.546 C 31.995 20.106 31.615 20.566 31.135 20.926 L 33.656 23.809 C 34.498 24.89 34.658 26.07 34.137 27.352 C 33.856 27.873 33.496 28.293 33.056 28.614 L 35.519 31.435 C 35.559 31.475 35.599 31.536 35.639 31.615 C 36.119 31.976 36.36 32.456 36.36 33.057 L 36.36 38.822 C 36.36 39.383 36.54 39.844 36.9 40.204 C 37.26 40.564 37.72 40.744 38.28 40.744 C 38.841 40.744 39.302 40.564 39.662 40.204 C 40.023 39.844 40.203 39.383 40.203 38.822 L 40.203 34.979 L 48.429 34.979 C 48.99 34.939 49.41 34.679 49.691 34.198 C 49.891 33.678 49.811 33.198 49.451 32.757 Z" style="fill: rgb(255, 255, 255);">
    <title>tree</title>
  </path>
</svg>