<?xml version="1.0" encoding="utf-8"?>
<svg width="261" height="66" viewBox="0 0 261 66" fill="none" xmlns="http://www.w3.org/2000/svg"
  xmlns:xlink="http://www.w3.org/1999/xlink">
  <symbol id="logo-symbol-wordmark-with-sub">
    <path
      d="M60.7539 14.4034C59.8143 7.41942 53.7273 1.91557 46.5117 0.849066C45.2943 0.668854 40.6819 0.0130005 29.9973 0.0130005H29.9175C19.2299 0.0130005 16.937 0.668854 15.7196 0.849066C8.70488 1.88602 2.29885 6.83152 0.744617 13.8982C-0.00294988 17.3784 -0.0827298 21.2367 0.0561464 24.7759C0.254119 29.8514 0.292531 34.918 0.753482 39.9728C1.07215 43.3305 1.62806 46.6614 2.41704 49.9406C3.89445 55.9969 9.87499 61.0369 15.7344 63.0931C22.0077 65.2374 28.7542 65.5934 35.2184 64.1212C35.9295 63.9558 36.6318 63.7638 37.3252 63.5451C38.8971 63.0459 40.738 62.4875 42.0913 61.5067C42.1099 61.4929 42.1251 61.4751 42.1358 61.4547C42.1466 61.4342 42.1526 61.4116 42.1534 61.3885V56.4903C42.153 56.4687 42.1479 56.4475 42.1383 56.4281C42.1287 56.4088 42.1149 56.3918 42.0979 56.3785C42.0809 56.3652 42.0611 56.3559 42.04 56.3512C42.019 56.3465 41.9971 56.3466 41.9761 56.3514C37.8345 57.3406 33.5905 57.8364 29.3324 57.8286C22.0045 57.8286 20.0336 54.3514 19.4693 52.9038C19.0156 51.6527 18.7275 50.3476 18.6124 49.0218C18.6112 48.9996 18.6153 48.9773 18.6243 48.9569C18.6333 48.9366 18.647 48.9186 18.6643 48.9045C18.6816 48.8904 18.7019 48.8805 18.7237 48.8758C18.7455 48.871 18.7681 48.8715 18.7897 48.8771C22.8622 49.8595 27.037 50.3553 31.2265 50.3542C32.234 50.3542 33.2387 50.3542 34.2463 50.3276C38.4598 50.2094 42.9009 49.9938 47.0465 49.1843C47.1499 49.1636 47.2534 49.1459 47.342 49.1193C53.881 47.8637 60.1038 43.9227 60.7362 33.9431C60.7598 33.5502 60.8189 29.8278 60.8189 29.4201C60.8218 28.0345 61.2651 19.5911 60.7539 14.4034Z"
      fill="url(#paint0_linear_89_11)" />
    <path
      d="M12.3442 18.3034C12.3442 16.2668 13.9777 14.6194 15.997 14.6194C18.0163 14.6194 19.6497 16.2668 19.6497 18.3034C19.6497 20.34 18.0163 21.9874 15.997 21.9874C13.9777 21.9874 12.3442 20.34 12.3442 18.3034Z"
      fill="#FFFFFF" />
    <path
      d="M 43.615 31.078 C 43.932 31.466 44.002 31.888 43.826 32.347 C 43.579 32.77 43.209 32.999 42.715 33.035 L 35.47 33.035 L 35.47 36.419 C 35.47 36.912 35.312 37.318 34.995 37.635 C 34.677 37.952 34.272 38.111 33.779 38.111 C 33.285 38.111 32.879 37.952 32.562 37.635 C 32.245 37.318 32.086 36.912 32.086 36.419 L 32.086 33.035 L 24.841 33.035 C 24.349 32.999 23.978 32.77 23.731 32.347 C 23.555 31.888 23.626 31.466 23.943 31.078 L 28.174 26.266 L 26.534 26.266 C 26.04 26.231 25.671 26.001 25.424 25.578 C 25.247 25.12 25.3 24.697 25.582 24.309 L 29.76 19.497 L 28.226 19.497 C 27.698 19.462 27.327 19.215 27.115 18.756 C 26.94 18.299 27.01 17.876 27.327 17.487 L 33.144 11.301 C 33.567 10.949 33.991 10.949 34.413 11.301 L 40.23 17.487 C 40.548 17.876 40.618 18.299 40.441 18.756 C 40.23 19.215 39.86 19.462 39.331 19.497 L 37.798 19.497 L 41.975 24.309 C 42.257 24.697 42.31 25.12 42.134 25.578 C 41.887 26.036 41.516 26.266 41.024 26.266 L 39.384 26.266 L 43.615 31.078 Z"
      fill="#FFFFFF" />
    <path
      d="M 57.363 32.347 C 57.116 32.77 56.746 32.999 56.253 33.035 L 49.008 33.035 L 49.008 36.419 C 49.008 36.912 48.849 37.318 48.532 37.635 C 48.215 37.952 47.809 38.111 47.316 38.111 C 46.822 38.111 46.417 37.952 46.1 37.635 C 45.782 37.318 45.624 36.912 45.624 36.419 L 45.624 31.342 C 45.624 30.813 45.412 30.39 44.989 30.073 C 44.954 30.003 44.919 29.95 44.884 29.915 L 42.715 27.429 C 43.103 27.148 43.42 26.777 43.667 26.318 C 44.126 25.191 43.984 24.151 43.244 23.199 L 41.024 20.661 C 41.446 20.344 41.782 19.938 42.027 19.444 C 42.381 18.457 42.257 17.522 41.658 16.642 L 46.681 11.301 C 47.105 10.949 47.527 10.949 47.951 11.301 L 53.767 17.487 C 54.084 17.876 54.156 18.299 53.979 18.756 C 53.767 19.215 53.397 19.462 52.868 19.497 L 51.335 19.497 L 55.513 24.309 C 55.794 24.697 55.847 25.12 55.672 25.578 C 55.425 26.036 55.054 26.266 54.561 26.266 L 52.922 26.266 L 57.151 31.078 C 57.469 31.466 57.54 31.888 57.363 32.347 Z"
      fill="#FFFFFF" />
    <path
      d="M 69.466 38.051 L 69.466 10.893 L 76.035 10.893 L 76.035 38.051 Z M 80.093 38.051 L 80.093 19.306 L 86.661 19.306 L 86.661 38.051 Z M 79.945 16.649 L 79.945 10.745 L 86.845 10.745 L 86.845 16.649 Z M 100.314 38.457 Q 96.329 38.457 94.318 36.557 Q 92.307 34.656 92.307 30.782 L 92.307 24.14 L 88.801 24.14 L 88.801 19.306 L 92.307 19.306 L 92.307 14.878 L 98.875 13.328 L 98.875 19.306 L 103.451 19.306 L 103.451 24.14 L 98.875 24.14 L 98.875 30.523 Q 98.875 32.147 99.613 32.682 Q 100.351 33.217 101.384 33.217 Q 102.011 33.217 102.473 33.125 Q 102.934 33.033 103.451 32.848 L 103.451 37.903 Q 102.639 38.235 101.845 38.346 Q 101.052 38.457 100.314 38.457 Z M 113.93 38.457 Q 109.945 38.457 107.934 36.557 Q 105.923 34.656 105.923 30.782 L 105.923 24.14 L 102.417 24.14 L 102.417 19.306 L 105.923 19.306 L 105.923 14.878 L 112.491 13.328 L 112.491 19.306 L 117.067 19.306 L 117.067 24.14 L 112.491 24.14 L 112.491 30.523 Q 112.491 32.147 113.229 32.682 Q 113.967 33.217 115 33.217 Q 115.627 33.217 116.089 33.125 Q 116.55 33.033 117.067 32.848 L 117.067 37.903 Q 116.255 38.235 115.461 38.346 Q 114.668 38.457 113.93 38.457 Z M 119.613 38.051 L 119.613 10.893 L 126.181 10.893 L 126.181 38.051 Z M 140.129 38.457 Q 135.037 38.457 132.214 35.837 Q 129.391 33.217 129.391 28.641 Q 129.391 25.8 130.572 23.586 Q 131.753 21.372 133.893 20.136 Q 136.033 18.9 138.911 18.9 Q 141.753 18.9 143.653 20.136 Q 145.553 21.372 146.513 23.531 Q 147.472 25.689 147.472 28.531 L 147.472 29.933 L 134.889 29.933 L 134.889 26.833 L 142.638 26.833 L 142.011 27.35 Q 142.011 25.247 141.218 24.232 Q 140.424 23.217 138.985 23.217 Q 137.325 23.217 136.458 24.453 Q 135.59 25.689 135.59 28.162 L 135.59 28.826 Q 135.59 31.298 136.808 32.442 Q 138.026 33.586 140.314 33.586 Q 141.79 33.586 143.1 33.254 Q 144.41 32.922 145.59 32.184 L 147.288 36.464 Q 145.886 37.424 144.041 37.94 Q 142.196 38.457 140.129 38.457 Z M 158.359 38.051 L 158.359 24.14 L 154.853 24.14 L 154.853 19.306 L 160.204 19.306 L 158.359 21.003 L 158.359 18.457 Q 158.359 14.583 160.388 12.664 Q 162.418 10.745 166.514 10.745 Q 167.436 10.745 168.469 10.856 Q 169.503 10.966 170.314 11.298 L 170.314 16.317 Q 169.798 16.132 169.134 16.04 Q 168.469 15.948 167.842 15.948 Q 167.104 15.948 166.421 16.188 Q 165.739 16.428 165.314 17.018 Q 164.89 17.608 164.89 18.642 L 164.89 20.302 L 163.968 19.306 L 169.429 19.306 L 169.429 24.14 L 164.927 24.14 L 164.927 38.051 Z M 180.647 38.457 Q 177.51 38.457 175.222 37.276 Q 172.935 36.095 171.68 33.9 Q 170.425 31.704 170.425 28.678 Q 170.425 25.616 171.68 23.439 Q 172.935 21.261 175.222 20.081 Q 177.51 18.9 180.647 18.9 Q 183.746 18.9 186.034 20.081 Q 188.322 21.261 189.576 23.457 Q 190.831 25.653 190.831 28.678 Q 190.831 31.667 189.576 33.881 Q 188.322 36.095 186.034 37.276 Q 183.746 38.457 180.647 38.457 Z M 180.647 33.586 Q 182.27 33.586 183.23 32.424 Q 184.189 31.261 184.189 28.678 Q 184.189 26.095 183.23 24.933 Q 182.27 23.771 180.647 23.771 Q 178.986 23.771 178.027 24.933 Q 177.067 26.095 177.067 28.678 Q 177.067 31.261 178.027 32.424 Q 178.986 33.586 180.647 33.586 Z M 194.042 38.051 L 194.042 24.435 Q 194.042 23.143 193.968 21.852 Q 193.894 20.56 193.746 19.306 L 200.093 19.306 L 200.794 25.062 L 199.798 25.062 Q 200.167 22.959 200.979 21.594 Q 201.791 20.228 203.008 19.564 Q 204.226 18.9 205.886 18.9 Q 206.661 18.9 207.049 18.955 Q 207.436 19.011 207.879 19.195 L 207.879 24.951 Q 206.957 24.546 206.403 24.435 Q 205.85 24.324 204.964 24.324 Q 203.451 24.324 202.492 24.859 Q 201.532 25.394 201.108 26.501 Q 200.684 27.608 200.684 29.343 L 200.684 38.051 Z M 219.428 38.457 Q 214.336 38.457 211.513 35.837 Q 208.69 33.217 208.69 28.641 Q 208.69 25.8 209.871 23.586 Q 211.052 21.372 213.192 20.136 Q 215.332 18.9 218.211 18.9 Q 221.052 18.9 222.952 20.136 Q 224.853 21.372 225.812 23.531 Q 226.771 25.689 226.771 28.531 L 226.771 29.933 L 214.189 29.933 L 214.189 26.833 L 221.938 26.833 L 221.31 27.35 Q 221.31 25.247 220.517 24.232 Q 219.724 23.217 218.284 23.217 Q 216.624 23.217 215.757 24.453 Q 214.89 25.689 214.89 28.162 L 214.89 28.826 Q 214.89 31.298 216.107 32.442 Q 217.325 33.586 219.613 33.586 Q 221.089 33.586 222.399 33.254 Q 223.709 32.922 224.89 32.184 L 226.587 36.464 Q 225.185 37.424 223.34 37.94 Q 221.495 38.457 219.428 38.457 Z M 237.104 38.457 Q 234.484 38.457 232.362 37.922 Q 230.24 37.387 228.764 36.464 L 230.351 32.184 Q 231.79 32.996 233.58 33.512 Q 235.369 34.029 237.141 34.029 Q 238.543 34.029 239.189 33.605 Q 239.834 33.18 239.834 32.479 Q 239.834 31.926 239.428 31.593 Q 239.023 31.261 238.211 31.114 L 234.226 30.413 Q 231.864 29.97 230.554 28.66 Q 229.244 27.35 229.244 25.247 Q 229.244 23.328 230.277 21.907 Q 231.31 20.487 233.229 19.693 Q 235.148 18.9 237.768 18.9 Q 239.908 18.9 241.845 19.38 Q 243.783 19.859 245.222 20.892 L 243.524 25.062 Q 242.38 24.287 240.849 23.789 Q 239.318 23.291 237.989 23.291 Q 236.403 23.291 235.738 23.752 Q 235.074 24.213 235.074 24.878 Q 235.074 25.394 235.443 25.745 Q 235.812 26.095 236.624 26.243 L 240.609 26.944 Q 243.045 27.35 244.355 28.623 Q 245.665 29.896 245.665 32.073 Q 245.665 34.103 244.576 35.523 Q 243.487 36.944 241.569 37.7 Q 239.65 38.457 237.104 38.457 Z M 257.99 38.457 Q 254.005 38.457 251.994 36.557 Q 249.983 34.656 249.983 30.782 L 249.983 24.14 L 246.477 24.14 L 246.477 19.306 L 249.983 19.306 L 249.983 14.878 L 256.551 13.328 L 256.551 19.306 L 261.126 19.306 L 261.126 24.14 L 256.551 24.14 L 256.551 30.523 Q 256.551 32.147 257.289 32.682 Q 258.027 33.217 259.06 33.217 Q 259.687 33.217 260.148 33.125 Q 260.61 33.033 261.126 32.848 L 261.126 37.903 Q 260.315 38.235 259.521 38.346 Q 258.728 38.457 257.99 38.457 Z"
      fill="currentColor" />
    <path
      d="M 77.357 53.107 L 77.371 53.611 C 77.371 53.829 77.309 54.008 77.187 54.147 C 77.065 54.285 76.944 54.354 76.822 54.354 C 76.7 54.354 76.467 54.272 76.122 54.109 C 75.778 53.945 75.331 53.674 74.78 53.296 C 74.23 52.917 73.955 52.665 73.955 52.539 C 73.955 52.464 74.005 52.427 74.105 52.427 C 74.207 52.427 74.47 52.521 74.894 52.709 C 75.318 52.899 75.841 53.082 76.463 53.257 L 76.5 44.046 C 76.5 43.843 76.462 43.694 76.387 43.597 C 76.312 43.5 76.274 43.444 76.274 43.427 C 76.274 43.377 76.308 43.352 76.374 43.352 C 76.441 43.352 76.555 43.365 76.715 43.389 C 77.169 43.473 77.395 43.608 77.395 43.794 L 77.357 53.107 Z M 73.59 46.666 L 73.538 46.364 C 73.538 46.289 73.591 46.251 73.697 46.251 C 73.801 46.251 73.955 46.314 74.157 46.44 C 74.493 46.633 74.661 46.801 74.661 46.944 C 74.661 46.986 74.657 47.016 74.648 47.032 C 74.026 48.468 73.325 49.666 72.543 50.624 C 72.207 51.028 71.921 51.334 71.686 51.544 C 71.451 51.754 71.3 51.859 71.233 51.859 C 71.182 51.859 71.157 51.826 71.157 51.758 C 71.157 51.691 71.207 51.578 71.308 51.418 C 71.779 50.721 72.216 50.017 72.62 49.307 C 73.022 48.596 73.328 47.817 73.538 46.969 C 73.573 46.869 73.59 46.767 73.59 46.666 Z M 81.604 51.229 C 80.731 49.465 79.861 48.024 78.996 46.906 C 78.946 46.839 78.921 46.769 78.921 46.698 C 78.921 46.627 78.984 46.538 79.11 46.433 C 79.236 46.328 79.351 46.276 79.456 46.276 C 79.561 46.276 79.647 46.322 79.714 46.414 C 80.428 47.347 81.073 48.303 81.648 49.282 C 82.225 50.261 82.513 50.798 82.513 50.895 C 82.513 50.992 82.443 51.103 82.305 51.229 C 82.166 51.355 82.029 51.418 81.894 51.418 C 81.761 51.418 81.664 51.355 81.604 51.229 Z M 85.586 44.764 L 85.901 44.802 C 85.994 44.818 86.082 44.827 86.166 44.827 L 86.266 44.827 L 88.825 44.663 L 88.825 43.717 C 88.825 43.558 88.787 43.415 88.712 43.289 C 88.635 43.163 88.597 43.075 88.597 43.024 C 88.597 42.973 88.625 42.948 88.679 42.948 C 88.734 42.948 88.829 42.961 88.964 42.986 C 89.358 43.045 89.556 43.183 89.556 43.402 L 89.556 44.624 L 91.698 44.487 C 91.858 44.478 91.992 44.451 92.101 44.405 C 92.211 44.358 92.286 44.334 92.328 44.334 C 92.37 44.334 92.442 44.364 92.542 44.424 C 92.803 44.574 92.934 44.725 92.934 44.877 C 92.934 44.977 92.858 45.036 92.707 45.054 L 92.682 45.054 L 89.997 45.23 C 91.206 46.002 92.479 46.616 93.816 47.07 C 94 47.129 94.093 47.196 94.093 47.271 C 94.093 47.381 94.015 47.494 93.86 47.611 C 93.704 47.729 93.597 47.788 93.539 47.788 C 93.371 47.788 92.867 47.572 92.027 47.139 C 91.186 46.706 90.363 46.183 89.556 45.57 L 89.543 48.482 C 89.543 48.683 89.467 48.783 89.317 48.783 C 89.215 48.783 89.087 48.738 88.931 48.646 C 88.776 48.553 88.698 48.427 88.698 48.268 C 88.698 48.208 88.718 48.107 88.756 47.964 C 88.794 47.822 88.813 47.616 88.813 47.347 L 88.813 45.658 C 88.048 46.406 87.161 47.028 86.153 47.523 C 85.742 47.733 85.387 47.889 85.088 47.989 C 84.79 48.091 84.592 48.142 84.496 48.142 C 84.399 48.142 84.35 48.116 84.35 48.065 C 84.35 47.981 84.452 47.889 84.654 47.788 C 86.073 47.058 87.271 46.242 88.246 45.343 L 86.506 45.457 C 86.455 45.465 86.409 45.469 86.367 45.469 L 86.254 45.469 C 86.052 45.469 85.897 45.416 85.788 45.312 C 85.679 45.206 85.607 45.099 85.573 44.991 L 85.51 44.827 C 85.51 44.785 85.535 44.764 85.586 44.764 Z M 90.186 49.868 L 89.921 49.88 C 89.728 49.88 89.602 49.859 89.543 49.817 C 89.299 49.615 89.178 49.422 89.178 49.238 C 89.178 49.196 89.197 49.175 89.235 49.175 C 89.272 49.175 89.331 49.185 89.411 49.205 C 89.491 49.227 89.619 49.238 89.795 49.238 L 89.947 49.238 L 91.194 49.175 L 91.194 48.394 C 91.194 48.191 91.165 48.032 91.106 47.914 C 91.048 47.796 91.018 47.729 91.018 47.712 C 91.018 47.645 91.067 47.611 91.163 47.611 C 91.259 47.611 91.387 47.641 91.547 47.7 C 91.707 47.759 91.807 47.816 91.849 47.87 C 91.891 47.925 91.912 47.998 91.912 48.09 L 91.912 49.137 L 93.186 49.074 C 93.337 49.065 93.459 49.044 93.551 49.011 C 93.643 48.977 93.715 48.961 93.765 48.961 C 93.815 48.961 93.891 48.994 93.992 49.06 C 94.253 49.228 94.383 49.375 94.383 49.502 C 94.383 49.578 94.299 49.629 94.131 49.654 L 92.139 49.754 C 92.996 50.871 93.988 51.834 95.114 52.641 C 95.257 52.741 95.328 52.817 95.328 52.868 C 95.328 52.917 95.252 53.01 95.101 53.145 C 94.95 53.278 94.828 53.345 94.736 53.345 C 94.643 53.345 94.45 53.219 94.156 52.967 C 93.862 52.715 93.458 52.298 92.945 51.714 C 92.433 51.13 92.081 50.662 91.887 50.309 L 91.901 50.498 C 91.908 50.615 91.912 50.783 91.912 51.002 L 91.912 51.947 L 91.901 54.077 L 91.901 54.443 C 91.901 54.644 91.833 54.745 91.698 54.745 C 91.53 54.745 91.388 54.682 91.27 54.556 C 91.152 54.43 91.093 54.327 91.093 54.247 C 91.093 54.168 91.108 54.065 91.137 53.939 C 91.166 53.813 91.181 53.615 91.181 53.345 L 91.181 53.093 L 91.194 51.607 L 91.194 50.813 C 91.194 50.746 91.199 50.657 91.207 50.548 L 91.219 50.372 C 91.068 50.758 90.704 51.26 90.129 51.878 C 89.553 52.496 89.091 52.928 88.742 53.175 C 88.394 53.424 88.18 53.548 88.101 53.548 C 88.02 53.548 87.98 53.522 87.98 53.471 C 87.98 53.387 88.048 53.278 88.183 53.145 C 89.275 52.069 90.14 50.968 90.778 49.843 L 90.186 49.868 Z M 86.581 52.136 L 86.581 50.775 L 86.594 50.599 C 86.367 51.162 85.704 51.884 84.603 52.767 C 84.014 53.229 83.628 53.46 83.443 53.46 C 83.376 53.46 83.342 53.426 83.342 53.359 C 83.342 53.291 83.414 53.194 83.556 53.068 C 84.564 52.195 85.438 51.195 86.178 50.069 L 85.271 50.132 C 85.212 50.14 85.154 50.145 85.095 50.145 L 84.868 50.145 C 84.649 50.145 84.443 49.956 84.249 49.578 C 84.242 49.552 84.238 49.521 84.238 49.484 C 84.238 49.446 84.257 49.427 84.295 49.427 C 84.332 49.427 84.397 49.437 84.49 49.458 C 84.582 49.479 84.711 49.49 84.88 49.49 L 85.032 49.49 L 86.581 49.402 L 86.581 48.569 C 86.581 48.393 86.545 48.248 86.474 48.134 C 86.403 48.021 86.367 47.948 86.367 47.914 C 86.367 47.856 86.415 47.826 86.512 47.826 C 86.609 47.826 86.743 47.858 86.915 47.92 C 87.088 47.984 87.195 48.038 87.237 48.084 C 87.279 48.13 87.3 48.2 87.3 48.293 L 87.3 49.351 L 87.98 49.312 C 88.157 49.305 88.283 49.286 88.358 49.257 C 88.434 49.227 88.505 49.213 88.572 49.213 C 88.64 49.213 88.72 49.248 88.813 49.32 C 88.905 49.391 88.982 49.469 89.046 49.553 C 89.108 49.637 89.14 49.695 89.14 49.729 C 89.14 49.821 89.052 49.876 88.876 49.893 L 87.3 49.994 L 87.3 50.485 C 87.359 50.393 87.434 50.347 87.526 50.347 C 87.619 50.347 87.911 50.521 88.402 50.87 C 88.894 51.218 89.14 51.451 89.14 51.569 C 89.14 51.644 89.089 51.741 88.989 51.859 C 88.888 51.977 88.804 52.035 88.737 52.035 C 88.669 52.035 88.556 51.968 88.397 51.833 C 87.892 51.38 87.527 51.077 87.3 50.926 L 87.287 54.203 C 87.287 54.413 87.212 54.518 87.06 54.518 C 86.959 54.518 86.838 54.474 86.695 54.386 C 86.553 54.298 86.481 54.182 86.481 54.039 C 86.481 53.997 86.498 53.902 86.531 53.756 C 86.564 53.608 86.581 53.068 86.581 52.136 Z M 104.452 51.329 L 104.44 53.976 L 104.44 54.405 C 104.44 54.606 104.377 54.707 104.251 54.707 C 104.201 54.707 104.12 54.686 104.011 54.644 C 103.726 54.534 103.583 54.387 103.583 54.203 L 103.583 54.153 C 103.634 53.649 103.659 53.342 103.659 53.233 L 103.659 52.917 L 103.671 50.876 L 103.671 48.419 C 103.671 48.166 103.679 47.939 103.696 47.737 L 103.709 47.586 C 103.499 48.603 102.865 49.893 101.806 51.455 C 101.235 52.295 100.857 52.715 100.671 52.715 C 100.621 52.715 100.597 52.682 100.597 52.616 C 100.597 52.548 100.634 52.451 100.709 52.325 C 101.356 51.308 101.982 50.115 102.588 48.745 C 102.857 48.124 103.079 47.54 103.255 46.994 L 102.6 47.057 C 102.399 47.074 102.227 47.082 102.084 47.082 C 101.94 47.082 101.816 47.023 101.712 46.906 C 101.606 46.788 101.529 46.675 101.479 46.566 L 101.416 46.389 C 101.416 46.339 101.449 46.314 101.517 46.314 C 101.55 46.314 101.625 46.326 101.742 46.351 C 101.861 46.376 102.004 46.389 102.172 46.389 L 102.26 46.389 L 103.671 46.288 L 103.671 43.906 C 103.671 43.722 103.637 43.581 103.57 43.484 C 103.503 43.388 103.47 43.323 103.47 43.289 C 103.47 43.213 103.544 43.175 103.69 43.175 C 103.838 43.175 104.006 43.209 104.194 43.276 C 104.384 43.344 104.478 43.449 104.478 43.591 L 104.465 46.238 L 105.638 46.137 C 105.864 46.12 106.036 46.093 106.154 46.055 C 106.272 46.018 106.352 45.999 106.394 45.999 C 106.436 45.999 106.512 46.02 106.621 46.062 C 106.906 46.188 107.049 46.339 107.049 46.515 C 107.049 46.591 107.017 46.652 106.954 46.698 C 106.891 46.744 106.826 46.771 106.759 46.78 L 104.679 46.931 C 105.772 49.124 106.839 50.716 107.881 51.707 C 107.999 51.809 108.057 51.889 108.057 51.947 C 108.057 52.006 107.994 52.092 107.868 52.205 C 107.742 52.319 107.612 52.375 107.477 52.375 C 107.343 52.375 107.242 52.333 107.175 52.249 C 106.68 51.695 106.234 51.094 105.838 50.447 C 105.074 49.221 104.608 48.259 104.44 47.561 L 104.452 47.725 L 104.465 48.405 L 104.452 51.329 Z M 96.753 46.629 C 96.963 46.671 97.139 46.692 97.282 46.692 L 97.433 46.692 L 98.92 46.603 L 98.945 44.197 C 98.945 44.036 98.911 43.906 98.844 43.805 C 98.777 43.705 98.744 43.629 98.744 43.578 C 98.744 43.494 98.798 43.452 98.907 43.452 C 99.016 43.452 99.161 43.484 99.342 43.547 C 99.523 43.61 99.628 43.669 99.657 43.723 C 99.686 43.778 99.701 43.852 99.701 43.945 L 99.663 46.54 L 100.257 46.528 C 100.407 46.519 100.527 46.498 100.616 46.465 C 100.703 46.431 100.775 46.414 100.83 46.414 C 100.884 46.414 100.962 46.45 101.063 46.522 C 101.163 46.594 101.252 46.675 101.328 46.767 C 101.403 46.86 101.441 46.935 101.441 46.994 C 101.441 47.087 101.348 47.142 101.164 47.158 L 99.663 47.221 L 99.651 48.293 C 99.752 48.192 99.844 48.142 99.928 48.142 C 100.012 48.142 100.075 48.158 100.117 48.191 C 100.319 48.351 100.562 48.582 100.849 48.885 C 101.285 49.313 101.504 49.585 101.504 49.698 C 101.504 49.811 101.449 49.92 101.339 50.025 C 101.23 50.13 101.133 50.183 101.049 50.183 C 100.965 50.183 100.886 50.137 100.81 50.044 C 100.399 49.514 100.008 49.073 99.638 48.72 L 99.575 54.354 C 99.575 54.556 99.499 54.657 99.348 54.657 C 99.172 54.657 99.023 54.598 98.901 54.48 C 98.779 54.362 98.718 54.262 98.718 54.178 C 98.718 54.094 98.739 53.959 98.781 53.775 C 98.823 53.59 98.844 53.355 98.844 53.068 L 98.857 52.69 C 98.857 50.557 98.882 49.187 98.933 48.583 L 98.933 48.43 C 98.605 49.363 98.025 50.35 97.194 51.392 C 96.706 51.998 96.391 52.301 96.249 52.301 C 96.198 52.301 96.172 52.262 96.172 52.186 C 96.172 52.111 96.219 52.01 96.312 51.884 C 97.219 50.599 98.026 49.069 98.731 47.296 L 97.685 47.372 C 97.551 47.389 97.421 47.397 97.295 47.397 C 97.025 47.397 96.815 47.195 96.665 46.792 C 96.656 46.775 96.652 46.754 96.652 46.729 C 96.652 46.662 96.685 46.629 96.753 46.629 Z M 152.921 45.986 L 152.896 49.112 L 152.896 49.616 C 152.896 49.75 152.866 49.88 152.808 50.006 C 152.748 50.132 152.664 50.203 152.556 50.221 L 152.493 50.221 C 152.257 50.221 152.097 50.011 152.013 49.591 L 152.013 49.54 L 152.052 49.213 L 152.052 48.86 L 152.076 45.709 L 152.076 45.369 C 152.076 45.209 152.032 45.08 151.945 44.984 C 151.856 44.887 151.811 44.805 151.811 44.739 L 151.811 44.712 C 151.837 44.646 151.961 44.613 152.183 44.613 C 152.406 44.613 152.584 44.65 152.718 44.726 C 152.853 44.801 152.921 44.964 152.921 45.217 L 152.921 45.986 Z M 156.526 44.964 C 156.55 45.461 156.562 46.125 156.562 46.956 L 156.562 47.347 C 156.529 49.179 156.214 50.607 155.617 51.632 C 155.046 52.632 154.068 53.489 152.682 54.203 C 152.446 54.329 152.282 54.392 152.189 54.392 C 152.097 54.392 152.052 54.371 152.052 54.329 C 152.052 54.237 152.194 54.077 152.479 53.85 C 153.009 53.455 153.473 53.054 153.872 52.646 C 154.271 52.239 154.601 51.775 154.861 51.254 C 155.399 50.221 155.668 48.738 155.668 46.805 C 155.668 46.074 155.66 45.551 155.643 45.236 C 155.626 44.921 155.577 44.717 155.498 44.624 C 155.418 44.533 155.378 44.453 155.378 44.386 L 155.378 44.361 C 155.395 44.301 155.485 44.271 155.649 44.271 C 155.813 44.271 155.981 44.301 156.153 44.361 C 156.325 44.419 156.43 44.486 156.468 44.561 C 156.507 44.638 156.526 44.739 156.526 44.865 L 156.526 44.964 Z M 165.057 53.372 L 165.145 53.03 L 165.145 45.117 C 165.145 44.923 165.101 44.77 165.013 44.657 C 164.926 44.543 164.882 44.457 164.882 44.397 C 164.882 44.313 164.966 44.271 165.134 44.271 C 165.302 44.271 165.467 44.303 165.63 44.367 C 165.795 44.429 165.893 44.505 165.926 44.594 C 165.961 44.682 165.978 44.797 165.978 44.94 L 165.978 47.8 C 167.07 48.07 168.187 48.448 169.329 48.934 C 169.791 49.128 170.043 49.279 170.085 49.389 C 170.111 49.447 170.124 49.523 170.124 49.616 C 170.124 49.708 170.09 49.808 170.022 49.918 C 169.956 50.027 169.878 50.082 169.789 50.082 C 169.701 50.082 169.63 50.069 169.575 50.044 C 169.521 50.018 169.414 49.968 169.254 49.893 C 167.943 49.254 166.851 48.813 165.978 48.569 L 165.978 53.561 C 165.978 53.914 165.881 54.119 165.688 54.178 C 165.671 54.187 165.627 54.191 165.556 54.191 C 165.484 54.191 165.383 54.117 165.252 53.97 C 165.122 53.823 165.057 53.624 165.057 53.372 Z M 177.798 47.296 C 177.63 49.918 176.613 51.96 174.747 53.422 C 174.579 53.556 174.455 53.624 174.376 53.624 C 174.296 53.624 174.256 53.577 174.256 53.485 C 174.256 53.392 174.345 53.266 174.521 53.107 C 175.437 52.191 176.117 50.981 176.563 49.477 C 176.747 48.872 176.869 48.2 176.928 47.46 L 176.928 47.41 C 176.928 47.268 176.903 47.161 176.853 47.089 C 176.802 47.017 176.777 46.954 176.777 46.9 C 176.777 46.846 176.781 46.806 176.79 46.78 C 176.798 46.755 176.863 46.742 176.985 46.742 C 177.107 46.742 177.248 46.765 177.407 46.811 C 177.566 46.858 177.671 46.904 177.722 46.95 C 177.773 46.996 177.798 47.082 177.798 47.208 L 177.798 47.296 Z M 179.815 46.742 L 179.788 50.825 L 179.788 51.959 C 180.88 51.228 181.922 50.363 182.914 49.364 C 183.41 48.867 183.839 48.372 184.199 47.876 C 184.385 47.657 184.515 47.548 184.59 47.548 C 184.649 47.548 184.678 47.603 184.678 47.712 C 184.678 47.822 184.605 48.019 184.459 48.304 C 184.311 48.59 184.078 48.939 183.758 49.351 C 183.44 49.763 183.019 50.238 182.498 50.775 C 181.977 51.312 181.36 51.863 180.645 52.427 C 179.931 52.989 179.524 53.271 179.423 53.271 C 179.323 53.271 179.232 53.224 179.152 53.131 C 179.072 53.04 179.011 52.943 178.969 52.841 C 178.927 52.741 178.906 52.678 178.906 52.652 L 178.906 52.602 L 178.944 52.287 L 178.957 48.583 L 178.957 46.074 C 178.957 45.906 178.919 45.767 178.843 45.658 C 178.768 45.549 178.73 45.457 178.73 45.381 L 178.73 45.369 C 178.73 45.318 178.808 45.293 178.963 45.293 C 179.118 45.293 179.28 45.326 179.448 45.394 C 179.616 45.461 179.719 45.537 179.757 45.621 C 179.796 45.705 179.815 45.806 179.815 45.923 L 179.815 46.742 Z M 193.122 49.011 C 193.122 49.011 193.122 49.078 193.122 49.213 C 193.122 49.347 193.032 49.506 192.851 49.691 C 192.67 49.876 192.452 49.969 192.196 49.969 C 191.94 49.969 191.72 49.9 191.535 49.761 C 191.35 49.622 191.198 49.448 191.081 49.238 C 190.964 49.028 190.905 48.795 190.905 48.539 C 190.905 48.282 190.993 48.055 191.169 47.857 C 191.346 47.66 191.562 47.561 191.818 47.561 C 192.074 47.561 192.295 47.631 192.48 47.769 C 192.665 47.908 192.819 48.082 192.941 48.293 C 193.062 48.503 193.122 48.742 193.122 49.011 Z M 201.516 45.772 C 201.945 45.721 202.861 45.605 204.264 45.425 C 205.667 45.244 206.843 45.12 207.793 45.054 C 207.961 45.054 208.106 45.111 208.227 45.224 C 208.349 45.337 208.41 45.423 208.41 45.482 C 208.41 45.54 208.393 45.599 208.36 45.658 C 208.326 45.717 208.297 45.785 208.272 45.86 C 207.624 47.692 206.637 49.347 205.311 50.825 C 204.73 51.464 204.167 52.006 203.621 52.451 C 203.075 52.897 202.598 53.233 202.191 53.46 C 201.783 53.686 201.521 53.8 201.404 53.8 C 201.285 53.8 201.226 53.774 201.226 53.723 C 201.226 53.606 201.369 53.451 201.656 53.257 C 202.798 52.485 203.986 51.279 205.221 49.641 C 206.103 48.473 206.78 47.221 207.251 45.885 C 206.511 45.919 205.478 46.028 204.15 46.213 L 201.555 46.591 C 201.52 46.599 201.491 46.603 201.467 46.603 L 201.377 46.603 C 201.209 46.603 201.069 46.544 200.955 46.427 C 200.842 46.31 200.758 46.184 200.703 46.049 C 200.648 45.914 200.621 45.83 200.621 45.797 C 200.621 45.722 200.659 45.68 200.735 45.671 L 200.773 45.671 C 200.849 45.671 200.941 45.687 201.05 45.721 C 201.16 45.755 201.281 45.772 201.415 45.772 L 201.516 45.772 Z M 217.647 49.123 L 214.647 49.578 C 214.563 49.578 214.475 49.536 214.383 49.452 C 214.29 49.368 214.217 49.275 214.162 49.175 C 214.107 49.074 214.08 48.994 214.08 48.934 C 214.08 48.876 214.109 48.846 214.168 48.846 L 214.521 48.898 L 214.546 48.898 L 218.038 48.38 C 218.02 47.44 217.997 46.935 217.968 46.868 C 217.938 46.801 217.903 46.74 217.861 46.685 C 217.819 46.63 217.798 46.586 217.798 46.553 L 217.798 46.528 C 217.832 46.477 217.897 46.452 217.993 46.452 C 218.089 46.452 218.192 46.465 218.302 46.49 C 218.588 46.541 218.731 46.675 218.731 46.893 L 218.718 47.145 C 218.718 47.179 218.722 47.301 218.731 47.511 C 218.739 47.721 218.747 47.982 218.756 48.293 C 219.167 48.242 219.484 48.206 219.707 48.186 C 219.93 48.164 220.067 48.139 220.117 48.109 C 220.167 48.08 220.222 48.065 220.28 48.065 L 220.307 48.065 C 220.424 48.082 220.547 48.137 220.677 48.229 C 220.808 48.321 220.886 48.439 220.91 48.583 C 220.91 48.725 220.768 48.807 220.482 48.827 C 220.197 48.849 219.911 48.87 219.625 48.89 C 219.34 48.912 219.058 48.944 218.781 48.986 C 218.882 51.708 218.932 53.167 218.932 53.364 C 218.932 53.562 218.915 53.681 218.882 53.723 C 218.747 53.892 218.631 53.976 218.535 53.976 C 218.438 53.976 218.287 53.915 218.082 53.794 C 217.876 53.672 217.573 53.438 217.173 53.093 C 216.775 52.749 216.575 52.552 216.575 52.501 C 216.575 52.417 216.619 52.375 216.707 52.375 C 216.796 52.375 216.885 52.403 216.973 52.457 C 217.061 52.512 217.229 52.59 217.477 52.69 C 217.725 52.791 217.954 52.888 218.164 52.98 L 218.075 49.767 C 217.402 50.616 216.619 51.378 215.724 52.054 C 214.83 52.73 214.261 53.068 214.017 53.068 C 213.916 53.068 213.866 53.018 213.866 52.917 C 213.866 52.859 213.958 52.775 214.143 52.665 C 215.042 52.026 215.932 51.203 216.814 50.195 C 217.134 49.842 217.411 49.485 217.647 49.123 Z M 226.948 52.501 L 226.986 52.186 L 226.986 46.288 C 226.986 46.137 226.946 46.016 226.866 45.923 C 226.786 45.83 226.746 45.746 226.746 45.671 L 226.746 45.658 C 226.746 45.582 226.821 45.545 226.973 45.545 C 227.124 45.545 227.292 45.58 227.477 45.652 C 227.662 45.723 227.771 45.799 227.805 45.879 C 227.838 45.959 227.855 46.058 227.855 46.175 L 227.855 49.502 C 227.855 49.989 227.853 50.451 227.849 50.888 C 227.844 51.326 227.842 51.687 227.842 51.972 C 228.934 51.477 230.126 50.756 231.416 49.811 C 232.706 48.866 233.64 48.016 234.22 47.259 C 234.371 47.074 234.497 46.981 234.598 46.981 C 234.665 46.981 234.699 47.05 234.699 47.189 C 234.699 47.328 234.568 47.573 234.307 47.926 C 233.703 48.759 232.764 49.687 231.491 50.712 C 230.218 51.737 228.918 52.535 227.59 53.107 C 227.54 53.132 227.473 53.145 227.389 53.145 C 227.305 53.145 227.227 53.098 227.156 53.005 C 227.085 52.914 227.032 52.819 226.998 52.723 C 226.965 52.626 226.948 52.573 226.948 52.564 L 226.948 52.501 Z M 242.883 45.425 C 242.883 45.425 243.115 45.39 243.579 45.321 C 244.043 45.251 244.29 45.208 244.319 45.192 C 244.349 45.175 244.426 45.154 244.552 45.129 C 244.678 45.129 244.815 45.181 244.963 45.287 C 245.109 45.391 245.183 45.492 245.183 45.589 C 245.183 45.685 245.157 45.759 245.106 45.81 L 245.032 45.973 C 244.577 46.981 243.939 47.994 243.116 49.011 C 245.325 50.976 246.547 52.169 246.783 52.589 C 246.825 52.665 246.846 52.746 246.846 52.83 C 246.846 52.914 246.791 53.021 246.682 53.15 C 246.573 53.28 246.477 53.345 246.393 53.345 C 246.309 53.345 246.242 53.333 246.191 53.309 C 246.14 53.283 245.964 53.08 245.662 52.698 C 245.359 52.315 244.892 51.8 244.262 51.153 C 243.683 50.54 243.154 50.01 242.675 49.565 C 241.625 50.766 240.575 51.737 239.524 52.476 C 239.062 52.796 238.675 53.035 238.364 53.194 C 238.053 53.355 237.854 53.435 237.766 53.435 C 237.678 53.435 237.634 53.399 237.634 53.328 C 237.634 53.256 237.793 53.102 238.112 52.868 C 239.112 52.128 240.083 51.258 241.024 50.258 C 242.301 48.906 243.309 47.482 244.048 45.986 C 243.712 46.037 243.33 46.098 242.901 46.169 C 242.473 46.24 242.053 46.31 241.641 46.377 C 241.229 46.444 240.879 46.5 240.588 46.547 C 240.299 46.593 240.119 46.624 240.048 46.641 C 239.975 46.658 239.887 46.666 239.782 46.666 C 239.677 46.666 239.572 46.618 239.467 46.522 C 239.362 46.426 239.28 46.318 239.221 46.2 C 239.163 46.083 239.133 45.986 239.133 45.91 C 239.133 45.834 239.18 45.792 239.272 45.784 L 239.284 45.784 L 239.687 45.873 L 239.788 45.873 C 239.906 45.873 240.22 45.833 240.728 45.753 C 241.236 45.673 241.954 45.563 242.883 45.425 Z M 253.273 53.372 L 253.363 53.03 L 253.363 45.117 C 253.363 44.923 253.318 44.77 253.229 44.657 C 253.141 44.543 253.098 44.457 253.098 44.397 C 253.098 44.313 253.182 44.271 253.35 44.271 C 253.518 44.271 253.684 44.303 253.848 44.367 C 254.011 44.429 254.11 44.505 254.144 44.594 C 254.177 44.682 254.194 44.797 254.194 44.94 L 254.194 47.8 C 255.286 48.07 256.404 48.448 257.547 48.934 C 258.009 49.128 258.261 49.279 258.303 49.389 C 258.328 49.447 258.341 49.523 258.341 49.616 C 258.341 49.708 258.307 49.808 258.24 49.918 C 258.172 50.027 258.095 50.082 258.007 50.082 C 257.918 50.082 257.846 50.069 257.791 50.044 C 257.738 50.018 257.631 49.968 257.47 49.893 C 256.16 49.254 255.068 48.813 254.194 48.569 L 254.194 53.561 C 254.194 53.914 254.097 54.119 253.904 54.178 C 253.887 54.187 253.843 54.191 253.772 54.191 C 253.7 54.191 253.6 54.117 253.47 53.97 C 253.339 53.823 253.273 53.624 253.273 53.372 Z"
      fill="currentColor" />
    <defs>
      <linearGradient id="paint0_linear_89_11" x1="30.5" y1="0.0130005" x2="30.5" y2="65.013"
        gradientUnits="userSpaceOnUse">
        <stop stop-color="#6364FF" />
        <stop offset="1" stop-color="#563ACC" />
      </linearGradient>
    </defs>
  </symbol>
  <use style="color:#fff" transform="matrix(1, 0, 0, 1, 0, 0)" xlink:href="#logo-symbol-wordmark-with-sub" />
</svg>
