<?xml version="1.0" encoding="utf-8"?>
<svg width="79" height="79" viewBox="0 0 79 75" xmlns="http://www.w3.org/2000/svg" xmlns:xlink="http://www.w3.org/1999/xlink">
  <symbol id="logo-symbol-icon">
    <path d="M 74.789 33.931 C 74.789 34.402 74.72 38.697 74.693 39.15 C 73.957 50.665 66.714 55.212 59.103 56.661 C 59 56.692 58.879 56.712 58.759 56.736 C 53.934 57.67 48.765 57.919 43.86 58.055 C 42.688 58.086 41.518 58.086 40.346 58.086 C 35.469 58.087 30.61 57.515 25.87 56.382 C 25.845 56.375 25.819 56.375 25.793 56.38 C 25.768 56.386 25.744 56.397 25.724 56.413 C 25.704 56.43 25.688 56.45 25.678 56.474 C 25.667 56.497 25.662 56.523 25.664 56.549 C 25.798 58.078 26.133 59.584 26.661 61.028 C 27.318 62.698 29.612 66.71 38.141 66.71 C 43.097 66.719 48.037 66.147 52.857 65.006 C 52.882 65 52.907 65 52.932 65.006 C 52.956 65.011 52.979 65.022 52.999 65.037 C 53.019 65.052 53.035 65.072 53.046 65.094 C 53.057 65.117 53.063 65.141 53.064 65.166 L 53.064 70.818 C 53.063 70.845 53.056 70.871 53.043 70.894 C 53.031 70.918 53.013 70.938 52.992 70.954 C 51.416 72.086 49.274 72.73 47.448 73.306 C 46.638 73.559 45.82 73.78 44.992 73.971 C 37.468 75.67 29.616 75.259 22.314 72.785 C 15.494 70.412 8.533 64.597 6.813 57.609 C 5.895 53.825 5.248 49.982 4.877 46.108 C 4.34 40.275 4.296 34.429 4.065 28.573 C 3.904 24.489 3.997 20.037 4.867 16.021 C 6.676 7.868 14.132 2.161 22.297 0.965 C 23.714 0.757 26.382 0 38.822 0 L 38.915 0 C 51.351 0 56.72 0.757 58.137 0.965 C 66.535 2.195 73.62 8.546 74.714 16.604 C 75.309 22.59 74.793 32.333 74.789 33.931 Z M 38.463 30.734 L 40.614 30.734 C 41.261 30.734 41.747 30.432 42.07 29.831 C 42.302 29.23 42.232 28.675 41.862 28.166 L 36.381 21.853 L 38.394 21.853 C 39.088 21.807 39.573 21.483 39.851 20.882 C 40.082 20.281 39.989 19.726 39.573 19.217 L 31.942 11.099 C 31.386 10.637 30.831 10.637 30.276 11.099 L 22.645 19.217 C 22.229 19.726 22.136 20.281 22.367 20.882 C 22.645 21.483 23.13 21.807 23.824 21.853 L 25.837 21.853 L 20.356 28.166 C 19.986 28.675 19.916 29.23 20.148 29.831 C 20.471 30.386 20.957 30.688 21.604 30.734 L 23.755 30.734 L 18.204 37.047 C 17.788 37.556 17.696 38.111 17.927 38.712 C 18.251 39.267 18.736 39.568 19.385 39.614 L 28.889 39.614 L 28.889 44.054 C 28.889 44.702 29.097 45.234 29.513 45.65 C 29.929 46.066 30.461 46.274 31.109 46.274 C 31.757 46.274 32.289 46.066 32.705 45.65 C 33.121 45.234 33.329 44.702 33.329 44.054 L 33.329 39.614 L 42.833 39.614 C 43.481 39.568 43.966 39.267 44.291 38.712 C 44.522 38.111 44.43 37.556 44.013 37.047 Z M 61.774 37.047 L 56.223 30.734 L 58.375 30.734 C 59.022 30.734 59.508 30.432 59.831 29.831 C 60.062 29.23 59.993 28.675 59.623 28.166 L 54.142 21.853 L 56.154 21.853 C 56.848 21.807 57.334 21.483 57.612 20.882 C 57.843 20.281 57.75 19.726 57.334 19.217 L 49.702 11.099 C 49.147 10.637 48.592 10.637 48.037 11.099 L 41.446 18.107 C 42.232 19.263 42.394 20.489 41.932 21.784 C 41.608 22.431 41.169 22.963 40.614 23.379 L 43.527 26.71 C 44.499 27.958 44.684 29.322 44.082 30.803 C 43.758 31.404 43.342 31.89 42.833 32.26 L 45.679 35.52 C 45.725 35.566 45.771 35.636 45.817 35.728 C 46.372 36.145 46.65 36.699 46.65 37.394 L 46.65 44.054 C 46.65 44.702 46.858 45.234 47.274 45.65 C 47.69 46.066 48.222 46.274 48.869 46.274 C 49.517 46.274 50.049 46.066 50.465 45.65 C 50.882 45.234 51.09 44.702 51.09 44.054 L 51.09 39.614 L 60.594 39.614 C 61.242 39.568 61.727 39.267 62.051 38.712 C 62.282 38.111 62.19 37.556 61.774 37.047 Z" fill="currentColor"/>
  </symbol>
  <use style="color:#fff" transform="matrix(1, 0, 0, 1, 0, 0)" xlink:href="#logo-symbol-icon"/>
</svg>