<svg xmlns="http://www.w3.org/2000/svg" xmlns:xlink="http://www.w3.org/1999/xlink" viewBox="0 0 824 824"><defs><linearGradient id="a" x1="100" y1="512" x2="924" y2="512" gradientUnits="userSpaceOnUse"><stop offset="0.08" stop-color="#563acc"/><stop offset="0.52" stop-color="#6364ff"/></linearGradient></defs><rect x="100" y="100" width="824" height="824" rx="179.65" transform="translate(-100 924) rotate(-90)" style="fill:url(#a)"/><path d="M788.12,348.15c-8.58-63.19-64.13-113-130-122.63C647,223.89,604.93,218,507.41,218h-.73c-97.54,0-118.47,5.94-129.58,7.57-64,9.38-122.48,54.12-136.67,118.06-6.82,31.49-7.55,66.4-6.28,98.42,1.8,45.92,2.16,91.76,6.36,137.49a640.61,640.61,0,0,0,15.19,90.19c13.48,54.79,68.06,100.39,121.54,119A328.7,328.7,0,0,0,555.06,798q9.74-2.25,19.26-5.22c14.32-4.51,31.12-9.56,43.47-18.44a1.33,1.33,0,0,0,.41-.47,1.53,1.53,0,0,0,.16-.6V728.94a1.41,1.41,0,0,0-.14-.57,1.3,1.3,0,0,0-.37-.44,1.24,1.24,0,0,0-.53-.25,1.42,1.42,0,0,0-.58,0,497,497,0,0,1-115.4,13.37c-66.88,0-84.86-31.47-90-44.56a137.06,137.06,0,0,1-7.82-35.13,1.15,1.15,0,0,1,.1-.58,1.35,1.35,0,0,1,.37-.48,1.5,1.5,0,0,1,.54-.26,1.22,1.22,0,0,1,.6,0,488,488,0,0,0,113.51,13.36c9.2,0,18.36,0,27.56-.24,38.46-1.07,79-3,116.83-10.35.94-.18,1.88-.34,2.69-.58,59.68-11.36,116.48-47,122.25-137.31.21-3.56.75-37.24.75-40.92C788.74,471.48,792.78,395.09,788.12,348.15Zm-235,178.58a14.86,14.86,0,0,1-12.5,7.74H459.06v38.1a19.06,19.06,0,1,1-38.1,0v-38.1H339.4a14.88,14.88,0,0,1-12.5-7.74,13.51,13.51,0,0,1,2.38-14.28l47.63-54.18H358.45a14.87,14.87,0,0,1-12.5-7.73,14.22,14.22,0,0,1,1.79-14.29l47-54.17H377.5q-8.92-.6-12.5-8.34a13.49,13.49,0,0,1,2.38-14.28l65.48-69.65q7.14-6,14.29,0l65.48,69.65A13.49,13.49,0,0,1,515,373.74q-3.57,7.74-12.5,8.34H485.25l47,54.17a14.22,14.22,0,0,1,1.78,14.29q-4.17,7.74-12.5,7.73H503.11l47.62,54.18A13.49,13.49,0,0,1,553.11,526.73Zm152.4,0a14.88,14.88,0,0,1-12.5,7.74H611.45v38.1a19.05,19.05,0,1,1-38.1,0V515.42a17,17,0,0,0-7.14-14.28,7.17,7.17,0,0,0-1.19-1.79l-24.41-28a36.57,36.57,0,0,0,10.72-12.5q7.73-19-4.77-35.12l-25-28.58a38.14,38.14,0,0,0,11.31-13.69q6-16.67-4.17-31.55l56.56-60.12q7.14-6,14.28,0L665,359.46a13.51,13.51,0,0,1,2.38,14.28q-3.57,7.74-12.5,8.34H637.64l47,54.17a14.22,14.22,0,0,1,1.79,14.29q-4.17,7.74-12.5,7.73H655.5l47.62,54.18A13.5,13.5,0,0,1,705.51,526.73Z" transform="translate(-100 -100)" style="fill:#fbfbfb;fill-opacity:0.97000002861023"/></svg>