<?xml version="1.0" encoding="utf-8"?>
<svg width="261" height="66" viewBox="0 0 261 66" fill="none" xmlns="http://www.w3.org/2000/svg"
  xmlns:xlink="http://www.w3.org/1999/xlink">
  <symbol id="logo-symbol-wordmark">
    <path
      d="M60.7539 14.4034C59.8143 7.41942 53.7273 1.91557 46.5117 0.849066C45.2943 0.668854 40.6819 0.0130005 29.9973 0.0130005H29.9175C19.2299 0.0130005 16.937 0.668854 15.7196 0.849066C8.70488 1.88602 2.29885 6.83152 0.744617 13.8982C-0.00294988 17.3784 -0.0827298 21.2367 0.0561464 24.7759C0.254119 29.8514 0.292531 34.918 0.753482 39.9728C1.07215 43.3305 1.62806 46.6614 2.41704 49.9406C3.89445 55.9969 9.87499 61.0369 15.7344 63.0931C22.0077 65.2374 28.7542 65.5934 35.2184 64.1212C35.9295 63.9558 36.6318 63.7638 37.3252 63.5451C38.8971 63.0459 40.738 62.4875 42.0913 61.5067C42.1099 61.4929 42.1251 61.4751 42.1358 61.4547C42.1466 61.4342 42.1526 61.4116 42.1534 61.3885V56.4903C42.153 56.4687 42.1479 56.4475 42.1383 56.4281C42.1287 56.4088 42.1149 56.3918 42.0979 56.3785C42.0809 56.3652 42.0611 56.3559 42.04 56.3512C42.019 56.3465 41.9971 56.3466 41.9761 56.3514C37.8345 57.3406 33.5905 57.8364 29.3324 57.8286C22.0045 57.8286 20.0336 54.3514 19.4693 52.9038C19.0156 51.6527 18.7275 50.3476 18.6124 49.0218C18.6112 48.9996 18.6153 48.9773 18.6243 48.9569C18.6333 48.9366 18.647 48.9186 18.6643 48.9045C18.6816 48.8904 18.7019 48.8805 18.7237 48.8758C18.7455 48.871 18.7681 48.8715 18.7897 48.8771C22.8622 49.8595 27.037 50.3553 31.2265 50.3542C32.234 50.3542 33.2387 50.3542 34.2463 50.3276C38.4598 50.2094 42.9009 49.9938 47.0465 49.1843C47.1499 49.1636 47.2534 49.1459 47.342 49.1193C53.881 47.8637 60.1038 43.9227 60.7362 33.9431C60.7598 33.5502 60.8189 29.8278 60.8189 29.4201C60.8218 28.0345 61.2651 19.5911 60.7539 14.4034Z"
      fill="url(#paint0_linear_89_11)" />
    <path
      d="M12.3442 18.3034C12.3442 16.2668 13.9777 14.6194 15.997 14.6194C18.0163 14.6194 19.6497 16.2668 19.6497 18.3034C19.6497 20.34 18.0163 21.9874 15.997 21.9874C13.9777 21.9874 12.3442 20.34 12.3442 18.3034Z"
      fill="currentColor" />
    <path
      d="M 43.615 31.078 C 43.932 31.466 44.002 31.888 43.826 32.347 C 43.579 32.77 43.209 32.999 42.715 33.035 L 35.47 33.035 L 35.47 36.419 C 35.47 36.912 35.312 37.318 34.995 37.635 C 34.677 37.952 34.272 38.111 33.779 38.111 C 33.285 38.111 32.879 37.952 32.562 37.635 C 32.245 37.318 32.086 36.912 32.086 36.419 L 32.086 33.035 L 24.841 33.035 C 24.349 32.999 23.978 32.77 23.731 32.347 C 23.555 31.888 23.626 31.466 23.943 31.078 L 28.174 26.266 L 26.534 26.266 C 26.04 26.231 25.671 26.001 25.424 25.578 C 25.247 25.12 25.3 24.697 25.582 24.309 L 29.76 19.497 L 28.226 19.497 C 27.698 19.462 27.327 19.215 27.115 18.756 C 26.94 18.299 27.01 17.876 27.327 17.487 L 33.144 11.301 C 33.567 10.949 33.991 10.949 34.413 11.301 L 40.23 17.487 C 40.548 17.876 40.618 18.299 40.441 18.756 C 40.23 19.215 39.86 19.462 39.331 19.497 L 37.798 19.497 L 41.975 24.309 C 42.257 24.697 42.31 25.12 42.134 25.578 C 41.887 26.036 41.516 26.266 41.024 26.266 L 39.384 26.266 Z M 57.363 32.347 C 57.116 32.77 56.746 32.999 56.253 33.035 L 49.008 33.035 L 49.008 36.419 C 49.008 36.912 48.849 37.318 48.532 37.635 C 48.215 37.952 47.809 38.111 47.316 38.111 C 46.822 38.111 46.417 37.952 46.1 37.635 C 45.782 37.318 45.624 36.912 45.624 36.419 L 45.624 31.342 C 45.624 30.813 45.412 30.39 44.989 30.073 C 44.954 30.003 44.919 29.95 44.884 29.915 L 42.715 27.429 C 43.103 27.148 43.42 26.777 43.667 26.318 C 44.126 25.191 43.984 24.151 43.244 23.199 L 41.024 20.661 C 41.446 20.344 41.782 19.938 42.027 19.444 C 42.381 18.457 42.257 17.522 41.658 16.642 L 46.681 11.301 C 47.105 10.949 47.527 10.949 47.951 11.301 L 53.767 17.487 C 54.084 17.876 54.156 18.299 53.979 18.756 C 53.767 19.215 53.397 19.462 52.868 19.497 L 51.335 19.497 L 55.513 24.309 C 55.794 24.697 55.847 25.12 55.672 25.578 C 55.425 26.036 55.054 26.266 54.561 26.266 L 52.922 26.266 L 57.151 31.078 C 57.469 31.466 57.54 31.888 57.363 32.347 Z M 69.485 37.459 L 69.485 10.695 L 75.958 10.667 L 75.958 37.431 Z M 79.958 37.413 L 79.958 18.94 L 86.431 18.912 L 86.431 37.385 Z M 79.812 16.323 L 79.812 10.505 L 86.612 10.475 L 86.611 16.293 Z M 99.884 37.725 C 97.265 37.737 95.296 37.121 93.974 35.879 C 92.654 34.636 91.993 32.742 91.993 30.197 L 91.994 23.651 L 88.539 23.666 L 88.539 18.903 L 91.994 18.887 L 91.994 14.523 L 98.466 12.968 L 98.467 18.859 L 102.976 18.839 L 102.976 18.84 L 105.412 18.829 L 105.412 14.465 L 111.884 12.909 L 111.884 18.8 L 116.394 18.781 L 116.393 23.544 L 111.884 23.563 L 111.884 29.855 C 111.884 30.922 112.127 31.629 112.611 31.979 C 113.096 32.328 113.678 32.502 114.357 32.499 C 114.77 32.497 115.127 32.465 115.43 32.403 C 115.733 32.342 116.054 32.248 116.393 32.126 L 116.393 37.108 C 115.86 37.328 115.332 37.476 114.812 37.552 C 114.291 37.626 113.787 37.664 113.303 37.666 C 110.684 37.678 108.715 37.062 107.393 35.82 C 106.072 34.577 105.411 32.683 105.411 30.138 L 105.412 23.592 L 101.958 23.607 L 101.958 23.607 L 98.467 23.622 L 98.466 29.914 C 98.467 30.98 98.709 31.688 99.193 32.038 C 99.678 32.387 100.261 32.56 100.939 32.557 C 101.351 32.556 101.709 32.524 102.011 32.462 C 102.315 32.4 102.636 32.307 102.975 32.185 L 102.976 37.167 C 102.442 37.387 101.915 37.535 101.393 37.61 C 100.872 37.685 100.369 37.723 99.884 37.725 Z M 118.901 37.243 L 118.902 10.479 L 125.374 10.45 L 125.374 37.214 Z M 139.12 37.553 C 135.775 37.568 133.175 36.719 131.321 35.006 C 129.466 33.293 128.539 30.934 128.539 27.927 C 128.539 26.061 128.926 24.399 129.703 22.94 C 130.479 21.483 131.57 20.344 132.975 19.526 C 134.381 18.708 136.03 18.294 137.921 18.285 C 139.787 18.277 141.344 18.677 142.594 19.484 C 143.842 20.29 144.781 21.402 145.412 22.818 C 146.042 24.233 146.357 25.874 146.357 27.741 L 146.357 29.123 L 134.716 29.174 C 134.862 30.25 135.239 31.072 135.847 31.641 C 136.647 32.389 137.799 32.759 139.303 32.752 C 140.272 32.748 141.187 32.635 142.047 32.413 C 142.909 32.192 143.726 31.836 144.502 31.348 L 146.174 35.559 C 145.253 36.193 144.187 36.683 142.975 37.027 C 141.762 37.372 140.478 37.547 139.12 37.553 Z M 140.194 23.53 C 139.672 22.867 138.938 22.537 137.993 22.541 C 136.902 22.546 136.072 22.956 135.503 23.769 C 135.098 24.348 134.836 25.131 134.719 26.119 L 140.962 26.091 C 140.905 24.964 140.649 24.111 140.194 23.53 Z M 161.519 37.056 L 161.519 23.346 L 158.064 23.361 L 158.064 18.598 L 161.519 18.583 L 161.519 17.746 C 161.519 15.201 162.186 13.295 163.518 12.029 C 164.853 10.762 166.864 10.124 169.555 10.112 C 170.161 10.109 170.804 10.142 171.483 10.211 C 172.162 10.281 172.768 10.425 173.301 10.64 L 173.301 15.585 C 172.962 15.466 172.574 15.377 172.138 15.319 C 171.701 15.259 171.277 15.23 170.865 15.232 C 170.38 15.234 169.913 15.315 169.464 15.475 C 169.016 15.635 168.652 15.91 168.373 16.298 C 168.095 16.687 167.955 17.222 167.955 17.9 L 167.955 18.555 L 172.428 18.535 L 172.429 23.298 L 167.992 23.318 L 167.992 37.028 Z M 183.484 37.359 C 181.423 37.368 179.641 36.988 178.138 36.219 C 176.635 35.45 175.471 34.346 174.647 32.908 C 173.823 31.468 173.411 29.755 173.41 27.767 C 173.411 25.755 173.823 24.032 174.647 22.599 C 175.472 21.164 176.635 20.056 178.138 19.273 C 179.641 18.491 181.423 18.095 183.483 18.086 C 185.519 18.077 187.289 18.457 188.792 19.227 C 190.296 19.996 191.458 21.1 192.283 22.539 C 193.107 23.978 193.52 25.691 193.519 27.679 C 193.52 29.643 193.107 31.354 192.283 32.812 C 191.459 34.27 190.295 35.39 188.792 36.173 C 187.289 36.954 185.52 37.35 183.484 37.359 Z M 183.484 32.559 C 184.549 32.554 185.398 32.169 186.028 31.403 C 186.659 30.637 186.974 29.405 186.974 27.708 C 186.974 26.011 186.658 24.782 186.028 24.022 C 185.398 23.261 184.55 22.881 183.483 22.886 C 182.392 22.891 181.532 23.278 180.902 24.044 C 180.272 24.81 179.956 26.041 179.956 27.738 C 179.956 29.435 180.271 30.665 180.902 31.425 C 181.532 32.186 182.393 32.564 183.484 32.559 Z M 196.683 36.902 L 196.683 23.483 C 196.682 22.635 196.658 21.786 196.61 20.938 C 196.561 20.09 196.488 19.254 196.392 18.43 L 202.647 18.403 L 203.039 21.621 C 203.183 21.272 203.343 20.95 203.519 20.654 C 204.053 19.754 204.72 19.084 205.52 18.644 C 206.319 18.205 207.265 17.982 208.356 17.977 C 208.865 17.975 209.246 17.992 209.501 18.028 C 209.756 18.063 210.029 18.141 210.319 18.259 L 210.32 23.932 C 209.713 23.669 209.228 23.501 208.865 23.43 C 208.501 23.359 208.028 23.325 207.446 23.327 C 206.452 23.331 205.641 23.511 205.011 23.866 C 204.38 24.219 203.926 24.76 203.647 25.489 C 203.368 26.218 203.228 27.152 203.228 28.292 L 203.229 36.874 Z M 221.7 37.192 C 218.354 37.206 215.754 36.358 213.9 34.645 C 212.045 32.931 211.119 30.572 211.119 27.565 C 211.119 25.699 211.506 24.037 212.282 22.579 C 213.058 21.121 214.149 19.983 215.555 19.165 C 216.961 18.346 218.61 17.932 220.501 17.924 C 222.367 17.916 223.925 18.316 225.172 19.122 C 226.422 19.929 227.361 21.041 227.992 22.456 C 228.622 23.871 228.937 25.512 228.937 27.379 L 228.937 28.761 L 217.297 28.812 C 217.442 29.888 217.819 30.711 218.427 31.279 C 219.228 32.028 220.379 32.398 221.882 32.391 C 222.852 32.387 223.767 32.274 224.628 32.052 C 225.488 31.83 226.306 31.475 227.082 30.986 L 228.754 35.198 C 227.833 35.832 226.766 36.322 225.555 36.666 C 224.342 37.01 223.057 37.186 221.7 37.192 Z M 222.773 23.169 C 222.252 22.505 221.518 22.175 220.573 22.18 C 219.482 22.184 218.651 22.594 218.082 23.407 C 217.677 23.986 217.416 24.769 217.3 25.757 L 223.542 25.73 C 223.485 24.603 223.228 23.75 222.773 23.169 Z M 239.119 37.116 C 237.398 37.123 235.84 36.955 234.447 36.61 C 233.052 36.264 231.87 35.79 230.9 35.188 L 232.465 30.963 C 233.409 31.492 234.47 31.924 235.647 32.258 C 236.822 32.593 237.992 32.757 239.156 32.752 C 240.077 32.748 240.749 32.605 241.174 32.325 C 241.598 32.045 241.81 31.674 241.81 31.213 C 241.81 30.85 241.676 30.559 241.41 30.342 C 241.143 30.126 240.743 29.969 240.209 29.875 L 236.282 29.201 C 234.731 28.917 233.525 28.346 232.665 27.49 C 231.804 26.632 231.374 25.513 231.374 24.131 C 231.374 22.87 231.713 21.773 232.392 20.837 C 233.071 19.9 234.04 19.169 235.301 18.642 C 236.562 18.115 238.053 17.847 239.774 17.839 C 241.18 17.833 242.519 17.985 243.792 18.296 C 245.065 18.605 246.174 19.096 247.119 19.771 L 245.446 23.889 C 244.695 23.382 243.816 22.968 242.811 22.645 C 241.804 22.323 240.865 22.163 239.992 22.167 C 238.95 22.171 238.21 22.326 237.774 22.631 C 237.338 22.936 237.119 23.306 237.119 23.742 C 237.119 24.082 237.24 24.367 237.483 24.597 C 237.725 24.826 238.113 24.987 238.646 25.081 L 242.574 25.755 C 244.173 26.015 245.404 26.562 246.264 27.394 C 247.125 28.226 247.555 29.358 247.555 30.789 C 247.555 32.122 247.198 33.256 246.482 34.193 C 245.767 35.129 244.779 35.849 243.52 36.351 C 242.259 36.854 240.792 37.108 239.119 37.116 Z M 259.701 37.025 C 257.083 37.037 255.113 36.421 253.792 35.179 C 252.47 33.936 251.809 32.042 251.81 29.497 L 251.809 22.951 L 248.355 22.966 L 248.355 18.203 L 251.809 18.188 L 251.809 13.824 L 258.282 12.268 L 258.282 18.159 L 262.791 18.14 L 262.791 22.903 L 258.282 22.922 L 258.282 29.215 C 258.282 30.281 258.524 30.989 259.009 31.338 C 259.494 31.687 260.076 31.861 260.755 31.858 C 261.167 31.856 261.525 31.824 261.829 31.762 C 262.13 31.701 262.452 31.607 262.792 31.485 L 262.791 36.467 C 262.257 36.687 261.731 36.836 261.209 36.911 C 260.689 36.985 260.186 37.023 259.701 37.025 Z"
      fill="currentColor" />
    <defs>
      <linearGradient id="paint0_linear_89_11" x1="30.5" y1="0.0130005" x2="30.5" y2="65.013"
        gradientUnits="userSpaceOnUse">
        <stop stop-color="#6364FF" />
        <stop offset="1" stop-color="#563ACC" />
      </linearGradient>
    </defs>
  </symbol>
  <use style="color:#fff" transform="matrix(1, 0, 0, 1, 0, 0)" xlink:href="#logo-symbol-wordmark" />
</svg>